<svg xmlns="http://www.w3.org/2000/svg" width="20" height="20" viewBox="0 0 16 16" fill="none">
  <path d="M4.5 6V2.5a1 1 0 0 1 2 0V5h3V2.5a1 1 0 0 1 2 0V6c1.2.8 2 2.1 2 3.6V13a1.5 1.5 0 0 1-1.5 1.5h-8A1.5 1.5 0 0 1 2.5 13V9.6c0-1.5.8-2.8 2-3.6z" stroke="#6C707E" stroke-width="1.2" stroke-linejoin="round"/>
  <circle cx="6" cy="9.2" r="0.9" fill="#6C707E"/>
  <circle cx="10" cy="9.2" r="0.9" fill="#6C707E"/>
  <path d="M7 11.8h2" stroke="#6C707E" stroke-width="1.2" stroke-linecap="round"/>
</svg>
